<?xml version="1.0" ?><svg viewBox="0 0 256 256" xmlns="http://www.w3.org/2000/svg"><defs><style>.cls-1{fill:#6dd0fc;}.cls-2{fill:#a4ecff;}.cls-3{fill:#2fb1ea;}.cls-4{fill:#52e355;}.cls-5{fill:#90fc95;}.cls-6{fill:#ffe76e;}.cls-7{fill:#d4ffd4;}.cls-8{fill:#ffbdbd;}.cls-9{fill:#bbf1ff;}.cls-10{fill:#fff4c5;}</style></defs><title/><g data-name="Layer 2" id="Layer_2"><rect class="cls-1" height="108" width="108" x="74" y="114"/><rect class="cls-2" height="96.84" width="98.8" x="74" y="114"/><path class="cls-3" d="M182,224H74a2,2,0,0,1-2-2V114a2,2,0,0,1,2-2H182a2,2,0,0,1,2,2V222A2,2,0,0,1,182,224ZM76,220H180V116H76Z"/><path class="cls-3" d="M182,116a2,2,0,0,1-1.54-3.28l50-60a2,2,0,0,1,3.07,2.56l-50,60A2,2,0,0,1,182,116Z"/><path class="cls-3" d="M74,116a2,2,0,0,1-1.54-.72l-50-60a2,2,0,1,1,3.07-2.56l50,60A2,2,0,0,1,74,116Z"/><polygon class="cls-4" points="107.3 114 107.3 160.29 114.2 153.26 121.1 160.29 128 153.26 134.9 160.29 141.8 153.26 148.7 160.29 148.7 114 107.3 114"/><polygon class="cls-5" points="107.3 114 107.3 150.65 114.2 143.63 121.1 150.65 128 143.63 134.9 150.65 141.8 143.63 148.7 150.65 148.7 114 107.3 114"/><path class="cls-3" d="M148.7,162.29a2,2,0,0,1-1.43-.6l-5.47-5.57-5.47,5.57a2.06,2.06,0,0,1-2.85,0L128,156.12l-5.47,5.57a2.06,2.06,0,0,1-2.85,0l-5.47-5.57-5.47,5.57a2,2,0,0,1-3.43-1.4V114a2,2,0,0,1,2-2h41.4a2,2,0,0,1,2,2v46.29a2,2,0,0,1-2,2Zm-20.7-11a2,2,0,0,1,1.43.6l5.47,5.57,5.47-5.57a2.06,2.06,0,0,1,2.85,0l3.47,3.54V116H109.3v39.4l3.47-3.54a2.06,2.06,0,0,1,2.85,0l5.47,5.57,5.47-5.57A2,2,0,0,1,128,151.26Z"/><polygon class="cls-6" points="173.29 34 148.7 71.04 161.45 71.04 148.02 100.27 182 63.23 164.67 63.23 173.29 34"/><path class="cls-3" d="M148,102.27a2,2,0,0,1-1.82-2.83L158.33,73H148.7A2,2,0,0,1,147,69.93l24.59-37a2,2,0,0,1,3.58,1.67l-7.87,26.66H182a2,2,0,0,1,1.47,3.35l-34,37A2,2,0,0,1,148,102.27ZM152.43,69h9a2,2,0,0,1,1.82,2.83l-8.11,17.66,22.3-24.31H164.67a2,2,0,0,1-1.92-2.57l4.87-16.5Z"/><polygon class="cls-6" points="82.71 34 107.3 71.04 94.55 71.04 107.98 100.27 74 63.23 91.33 63.23 82.71 34"/><path class="cls-3" d="M108,102.27a2,2,0,0,1-1.47-.65l-34-37A2,2,0,0,1,74,61.23H88.65L80.79,34.57a2,2,0,0,1,3.58-1.67l24.59,37A2,2,0,0,1,107.3,73H97.67l12.12,26.39a2,2,0,0,1-1.82,2.83Zm-29.43-37,22.3,24.31L92.73,71.87A2,2,0,0,1,94.55,69h9L88.38,46.16l4.87,16.5a2,2,0,0,1-1.92,2.57Z"/><circle class="cls-7" cx="219.5" cy="161.5" r="5"/><circle class="cls-7" cx="139.5" cy="12.5" r="4"/><circle class="cls-7" cx="59.5" cy="150.5" r="3"/><circle class="cls-7" cx="76.5" cy="245.5" r="2"/><circle class="cls-7" cx="37.5" cy="171.5" r="1"/><circle class="cls-8" cx="41.5" cy="142.5" r="5"/><circle class="cls-8" cx="60.5" cy="189.5" r="4"/><circle class="cls-8" cx="222.5" cy="124.5" r="3"/><circle class="cls-8" cx="235.5" cy="185.5" r="2"/><circle class="cls-8" cx="182.5" cy="244.5" r="1"/><circle class="cls-9" cx="201.5" cy="59.5" r="5"/><circle class="cls-9" cx="37.5" cy="121.5" r="4"/><circle class="cls-9" cx="219.5" cy="215.5" r="3"/><circle class="cls-9" cx="152.5" cy="51.5" r="2"/><circle class="cls-9" cx="59.5" cy="33.5" r="1"/><circle class="cls-10" cx="237.5" cy="104.5" r="5"/><circle class="cls-10" cx="17.5" cy="70.5" r="4"/><circle class="cls-10" cx="67.5" cy="49.5" r="3"/><circle class="cls-10" cx="225.5" cy="53.5" r="2"/><circle class="cls-10" cx="136.5" cy="242.5" r="1"/></g></svg>