<?xml version="1.0" ?><svg viewBox="0 0 256 256" xmlns="http://www.w3.org/2000/svg"><defs><style>.cls-1{fill:#6dd0fc;}.cls-2{fill:#a4ecff;}.cls-3{fill:#2fb1ea;}.cls-4{fill:#cbecf9;}.cls-5{fill:#fff;}.cls-6{fill:#90fc95;}.cls-7{fill:#f88;}.cls-8{fill:#ffc444;}.cls-9{fill:#ffe76e;}.cls-10{fill:#d4ffd4;}.cls-11{fill:#ffbdbd;}.cls-12{fill:#bbf1ff;}.cls-13{fill:#fff4c5;}</style></defs><title/><g data-name="Layer 2" id="Layer_2"><rect class="cls-1" height="208" rx="12" ry="12" width="135.66" x="48.09" y="24"/><rect class="cls-2" height="198.16" rx="12" ry="12" width="126" x="48.09" y="24"/><rect class="cls-1" height="158.56" width="135.66" x="48.09" y="48.72"/><path class="cls-3" d="M171.75,234H60.09a14,14,0,0,1-14-14V36a14,14,0,0,1,14-14H171.75a14,14,0,0,1,14,14V220A14,14,0,0,1,171.75,234ZM60.09,26a10,10,0,0,0-10,10V220a10,10,0,0,0,10,10H171.75a10,10,0,0,0,10-10V36a10,10,0,0,0-10-10Z"/><rect class="cls-4" height="144.64" width="135.66" x="48.09" y="55.68"/><rect class="cls-5" height="144.64" width="126" x="48.09" y="55.68"/><path class="cls-3" d="M183.75,202.32H48.09a2,2,0,0,1-2-2V55.68a2,2,0,0,1,2-2H183.75a2,2,0,0,1,2,2V200.32A2,2,0,0,1,183.75,202.32Zm-133.66-4H181.75V57.68H50.09Z"/><circle class="cls-5" cx="115.92" cy="216.16" r="6"/><path class="cls-6" d="M122.31,123.5H109.52a6.46,6.46,0,1,1,0-12.93h23.75a4.5,4.5,0,0,0,0-9H120.42V95.11a4.5,4.5,0,0,0-9,0v6.46h-1.9a15.46,15.46,0,0,0,0,30.93h12.79a6.46,6.46,0,1,1,0,12.93H98.56a4.5,4.5,0,0,0,0,9h12.86v6.46a4.5,4.5,0,0,0,9,0v-6.46h1.9a15.46,15.46,0,1,0,0-30.93Z"/><path class="cls-7" d="M195.47,116.53a6,6,0,0,1-6-6V98.81a5.72,5.72,0,1,0-11.44,0v11.72a6,6,0,0,1-12,0V98.81a17.72,17.72,0,1,1,35.44,0v11.72A6,6,0,0,1,195.47,116.53Z"/><rect class="cls-8" height="48.33" width="48.33" x="159.58" y="110.53"/><rect class="cls-9" height="42.54" width="41.54" x="159.58" y="110.53"/><path class="cls-3" d="M207.91,160.86H159.58a2,2,0,0,1-2-2V110.53a2,2,0,0,1,2-2h48.33a2,2,0,0,1,2,2v48.33A2,2,0,0,1,207.91,160.86Zm-46.33-4h44.33V112.53H161.58Z"/><path class="cls-7" d="M183.75,124.85a6,6,0,0,0-3,11.19v5.48a3,3,0,1,0,6,0V136a6,6,0,0,0-3-11.19Z"/><circle class="cls-10" cx="24" cy="133" r="5"/><circle class="cls-10" cx="128" cy="8" r="4"/><circle class="cls-10" cx="248" cy="115" r="3"/><circle class="cls-10" cx="189" cy="250" r="2"/><circle class="cls-10" cx="218" cy="199" r="1"/><circle class="cls-11" cx="249" cy="177" r="5"/><circle class="cls-11" cx="219" cy="232" r="4"/><circle class="cls-11" cx="19" cy="107" r="3"/><circle class="cls-11" cx="24" cy="197" r="2"/><circle class="cls-11" cx="85" cy="240" r="1"/><circle class="cls-12" cx="195" cy="56" r="5"/><circle class="cls-12" cx="234" cy="92" r="4"/><circle class="cls-12" cx="131" cy="244" r="3"/><circle class="cls-12" cx="230" cy="28" r="2"/><circle class="cls-12" cx="228" cy="47" r="1"/><circle class="cls-13" cx="7" cy="57" r="5"/><circle class="cls-13" cx="234" cy="140" r="4"/><circle class="cls-13" cx="175" cy="13" r="3"/><circle class="cls-13" cx="42" cy="49" r="2"/><circle class="cls-13" cx="157" cy="241" r="1"/></g></svg>