<?xml version="1.0" ?><svg viewBox="0 0 256 256" xmlns="http://www.w3.org/2000/svg"><defs><style>.cls-1{fill:#a4ecff;}.cls-2{fill:#6dd0fc;}.cls-3{fill:#2fb1ea;}.cls-4{fill:#52e355;}.cls-5{fill:#90fc95;}.cls-6{fill:#ffc444;}.cls-7{fill:#ffe76e;}.cls-8{fill:#d4ffd4;}.cls-9{fill:#ffbdbd;}.cls-10{fill:#bbf1ff;}.cls-11{fill:#fff4c5;}</style></defs><title/><g data-name="Layer 2" id="Layer_2"><polygon class="cls-1" points="206.13 185.57 70.43 49.87 76.31 44 44 44 44 76.31 49.87 70.43 185.57 206.13 179.69 212 212 212 212 179.69 206.13 185.57"/><path class="cls-2" d="M176.5,155.94,100.06,79.5A56.4,56.4,0,0,0,79.5,100.06l76.44,76.44A56.4,56.4,0,0,0,176.5,155.94Z"/><path class="cls-3" d="M212,214H179.69a2,2,0,0,1-1.41-3.41l4.46-4.46L49.87,73.26l-4.46,4.46A2,2,0,0,1,42,76.31V44a2,2,0,0,1,2-2H76.31a2,2,0,0,1,1.41,3.41l-4.46,4.46L206.13,182.74l4.46-4.46a2,2,0,0,1,3.41,1.41V212A2,2,0,0,1,212,214Zm-27.48-4H210V184.52L207.54,187a2,2,0,0,1-2.83,0L69,51.29a2,2,0,0,1,0-2.83L71.48,46H46V71.48L48.46,69a2,2,0,0,1,2.83,0L187,204.71a2,2,0,0,1,0,2.83Z"/><polygon class="cls-1" points="49.87 185.57 185.57 49.87 179.69 44 212 44 212 76.31 206.13 70.43 70.43 206.13 76.31 212 44 212 44 179.69 49.87 185.57"/><path class="cls-2" d="M155.94,79.5,79.5,155.94a56.4,56.4,0,0,0,20.56,20.56l76.44-76.44A56.4,56.4,0,0,0,155.94,79.5Z"/><path class="cls-3" d="M76.31,214H44a2,2,0,0,1-2-2V179.69a2,2,0,0,1,3.41-1.41l4.46,4.46L182.74,49.87l-4.46-4.46A2,2,0,0,1,179.69,42H212a2,2,0,0,1,2,2V76.31a2,2,0,0,1-3.41,1.41l-4.46-4.46L73.26,206.13l4.46,4.46A2,2,0,0,1,76.31,214ZM46,210H71.48L69,207.54a2,2,0,0,1,0-2.83L204.71,69a2,2,0,0,1,2.83,0L210,71.48V46H184.52L187,48.46a2,2,0,0,1,0,2.83L51.29,187a2,2,0,0,1-2.83,0L46,184.52Z"/><path class="cls-4" d="M128,176a48,48,0,1,1,48-48A48.05,48.05,0,0,1,128,176Z"/><path class="cls-5" d="M128,169a44.5,44.5,0,1,1,44.5-44.5A44.55,44.55,0,0,1,128,169Z"/><path class="cls-3" d="M128,178a50,50,0,1,1,50-50A50.06,50.06,0,0,1,128,178Zm0-96a46,46,0,1,0,46,46A46.05,46.05,0,0,0,128,82Z"/><path class="cls-4" d="M128,164a38.94,38.94,0,1,1,38.94-38.94A39,39,0,0,1,128,164Z"/><path class="cls-6" d="M128,164a36,36,0,1,1,36-36A36,36,0,0,1,128,164Z"/><path class="cls-7" d="M128,164a33,33,0,1,1,33-33A33,33,0,0,1,128,164Z"/><path class="cls-3" d="M128,166a38,38,0,1,1,38-38A38,38,0,0,1,128,166Zm0-72a34,34,0,1,0,34,34A34,34,0,0,0,128,94Z"/><path class="cls-3" d="M132.67,124h-9.33a4,4,0,1,1,0-8h17.33a4,4,0,0,0,0-8H132v-4a4,4,0,0,0-8,0v4h-.67a12,12,0,1,0,0,24h9.33a4,4,0,0,1,0,8H115.33a4,4,0,1,0,0,8H124v4a4,4,0,0,0,8,0v-4h.67a12,12,0,0,0,0-24Z"/><circle class="cls-8" cx="31" cy="42" r="5"/><circle class="cls-8" cx="51" cy="120" r="4"/><circle class="cls-8" cx="195" cy="224" r="3"/><circle class="cls-8" cx="96" cy="33" r="2"/><circle class="cls-8" cx="44" cy="99" r="1"/><circle class="cls-9" cx="11" cy="80" r="5"/><circle class="cls-9" cx="128" cy="41" r="4"/><circle class="cls-9" cx="158" cy="208" r="3"/><circle class="cls-9" cx="224" cy="156" r="2"/><circle class="cls-9" cx="69" cy="232" r="1"/><circle class="cls-10" cx="137" cy="225" r="5"/><circle class="cls-10" cx="203" cy="119" r="4"/><circle class="cls-10" cx="187" cy="30" r="3"/><circle class="cls-10" cx="218" cy="136" r="2"/><circle class="cls-10" cx="43" cy="225" r="1"/><circle class="cls-11" cx="245" cy="138" r="5"/><circle class="cls-11" cx="224" cy="87" r="4"/><circle class="cls-11" cx="109" cy="190" r="3"/><circle class="cls-11" cx="40" cy="142" r="2"/><circle class="cls-11" cx="52" cy="24" r="1"/></g></svg>