<?xml version="1.0" ?><svg viewBox="0 0 256 256" xmlns="http://www.w3.org/2000/svg"><defs><style>.cls-1{fill:#cbecf9;}.cls-2{fill:#fff;}.cls-3{fill:#2fb1ea;}.cls-4{fill:#6dd0fc;}.cls-5{fill:#a4ecff;}.cls-6{fill:#52e355;}.cls-7{fill:#90fc95;}.cls-8{fill:#ffc444;}.cls-9{fill:#ffe76e;}.cls-10{fill:#d4ffd4;}.cls-11{fill:#ffbdbd;}.cls-12{fill:#bbf1ff;}.cls-13{fill:#fff4c5;}</style></defs><title/><g data-name="Layer 2" id="Layer_2"><rect class="cls-1" height="168" rx="12" ry="12" width="168" x="40.61" y="44"/><path class="cls-2" d="M186.4,200.41l-133.79,0a12,12,0,0,1-12-12V56a12,12,0,0,1,12-12L186.4,44a12,12,0,0,1,12,12V188.41A12,12,0,0,1,186.4,200.41Z"/><path class="cls-3" d="M196.61,214h-144a14,14,0,0,1-14-14V56a14,14,0,0,1,14-14h144a14,14,0,0,1,14,14V200A14,14,0,0,1,196.61,214ZM52.61,46a10,10,0,0,0-10,10V200a10,10,0,0,0,10,10h144a10,10,0,0,0,10-10V56a10,10,0,0,0-10-10Z"/><circle class="cls-1" cx="121.74" cy="125.13" r="63.77"/><circle class="cls-4" cx="124.61" cy="128" r="59.79"/><circle class="cls-5" cx="127.79" cy="131.17" r="55.25"/><path class="cls-3" d="M124.61,189.79A61.79,61.79,0,1,1,186.4,128,61.86,61.86,0,0,1,124.61,189.79Zm0-119.58A57.79,57.79,0,1,0,182.4,128,57.85,57.85,0,0,0,124.61,70.21Z"/><path class="cls-2" d="M124.61,180.08a6,6,0,0,0,6-6V81.92a6,6,0,0,0-6-6h0a6,6,0,0,0-6,6v92.16a6,6,0,0,0,6,6Z"/><path class="cls-3" d="M124.61,182.08a8,8,0,0,1-8-8V81.92a8,8,0,1,1,16,0v92.16A8,8,0,0,1,124.61,182.08Zm0-104.16a4,4,0,0,0-4,4v92.16a4,4,0,1,0,8,0V81.92A4,4,0,0,0,124.61,77.92Z"/><path class="cls-2" d="M87.79,164.83a6,6,0,0,0,8.49,0l32.58-32.58,32.58-32.58a6,6,0,0,0,0-8.49h0a6,6,0,0,0-8.49,0l-32.58,32.58L87.79,156.34a6,6,0,0,0,0,8.49Z"/><path class="cls-1" d="M142.59,101.54l-22.22,22.22L98.16,146a32.26,32.26,0,0,0,8.49,8.49l22.22-22.22L151.07,110A32.26,32.26,0,0,0,142.59,101.54Z"/><path class="cls-3" d="M92,168.58a8,8,0,0,1-5.66-2.34h0a8,8,0,0,1,0-11.31l65.17-65.17a8,8,0,1,1,11.31,11.31L97.69,166.24A8,8,0,0,1,92,168.58Zm-2.83-5.17a4,4,0,0,0,5.66,0L160,98.25a4,4,0,0,0-5.66-5.66L89.2,157.75A4,4,0,0,0,89.2,163.41Z"/><path class="cls-2" d="M72.54,128a6,6,0,0,0,6,6h92.16a6,6,0,0,0,6-6h0a6,6,0,0,0-6-6H78.54a6,6,0,0,0-6,6Z"/><path class="cls-1" d="M156,122H93.19a31.74,31.74,0,0,0,0,12H156a31.74,31.74,0,0,0,0-12Z"/><path class="cls-3" d="M170.69,136H78.54a8,8,0,0,1,0-16h92.16a8,8,0,0,1,0,16ZM78.54,124a4,4,0,0,0,0,8h92.16a4,4,0,0,0,0-8Z"/><path class="cls-2" d="M87.79,91.17a6,6,0,0,0,0,8.49l32.58,32.58L153,164.83a6,6,0,0,0,8.49,0h0a6,6,0,0,0,0-8.49l-32.58-32.58L96.27,91.17a6,6,0,0,0-8.49,0Z"/><path class="cls-1" d="M151.07,146l-22.22-22.22-22.22-22.22A32.26,32.26,0,0,0,98.16,110l22.22,22.22,22.22,22.22A32.26,32.26,0,0,0,151.07,146Z"/><path class="cls-3" d="M157.2,168.58a8,8,0,0,1-5.66-2.34L86.37,101.07a8,8,0,0,1,0-11.31h0a8,8,0,0,1,11.31,0l65.17,65.17a8,8,0,0,1-5.66,13.65Zm-68-76a4,4,0,0,0,0,5.66l65.17,65.17a4,4,0,0,0,5.66-5.66L94.86,92.59A4,4,0,0,0,89.2,92.59Z"/><path class="cls-2" d="M124.61,75.92a6,6,0,0,0-6,6v92.16a6,6,0,0,0,6,6h0a6,6,0,0,0,6-6V81.92a6,6,0,0,0-6-6Z"/><path class="cls-1" d="M130.61,96.57a31.74,31.74,0,0,0-12,0v62.86a31.74,31.74,0,0,0,12,0V96.57Z"/><path class="cls-3" d="M124.61,182.08a8,8,0,0,1-8-8V81.92a8,8,0,1,1,16,0v92.16A8,8,0,0,1,124.61,182.08Zm0-104.16a4,4,0,0,0-4,4v92.16a4,4,0,1,0,8,0V81.92A4,4,0,0,0,124.61,77.92Z"/><circle class="cls-6" cx="124.61" cy="128" r="24"/><circle class="cls-7" cx="122.44" cy="125.83" r="21.48"/><path class="cls-3" d="M124.61,154a26,26,0,1,1,26-26A26,26,0,0,1,124.61,154Zm0-48a22,22,0,1,0,22,22A22,22,0,0,0,124.61,106Z"/><circle class="cls-6" cx="122.98" cy="126.53" r="13.99"/><circle class="cls-1" cx="124.61" cy="128" r="12"/><circle class="cls-2" cx="127.2" cy="130.58" r="9.42"/><path class="cls-3" d="M124.61,142a14,14,0,1,1,14-14A14,14,0,0,1,124.61,142Zm0-24a10,10,0,1,0,10,10A10,10,0,0,0,124.61,118Z"/><rect class="cls-8" height="10.6" rx="5.3" ry="5.3" width="36.91" x="104.67" y="201.4"/><rect class="cls-9" height="6.77" rx="3" ry="3" width="36.91" x="104.67" y="201.4"/><path class="cls-3" d="M136.27,214H110a7.3,7.3,0,0,1,0-14.6h26.31a7.3,7.3,0,1,1,0,14.6ZM110,203.4a3.3,3.3,0,1,0,0,6.6h26.31a3.3,3.3,0,1,0,0-6.6Z"/><rect class="cls-8" height="10.6" rx="5.3" ry="5.3" width="36.91" x="104.67" y="190.8"/><rect class="cls-9" height="6.77" rx="3" ry="3" width="36.91" x="104.67" y="190.8"/><path class="cls-3" d="M136.27,203.4H110a7.3,7.3,0,1,1,0-14.6h26.31a7.3,7.3,0,1,1,0,14.6ZM110,192.8a3.3,3.3,0,1,0,0,6.6h26.31a3.3,3.3,0,1,0,0-6.6Z"/><rect class="cls-8" height="10.6" rx="5.3" ry="5.3" width="36.91" x="141.57" y="201.4"/><rect class="cls-9" height="6.77" rx="3" ry="3" width="36.91" x="141.57" y="201.4"/><path class="cls-3" d="M173.18,214H146.87a7.3,7.3,0,1,1,0-14.6h26.31a7.3,7.3,0,1,1,0,14.6Zm-26.31-10.6a3.3,3.3,0,1,0,0,6.6h26.31a3.3,3.3,0,1,0,0-6.6Z"/><rect class="cls-8" height="10.6" rx="5.3" ry="5.3" width="36.91" x="141.57" y="190.8"/><rect class="cls-9" height="6.77" rx="3" ry="3" width="36.91" x="141.57" y="190.8"/><path class="cls-3" d="M173.18,203.4H146.87a7.3,7.3,0,1,1,0-14.6h26.31a7.3,7.3,0,1,1,0,14.6Zm-26.31-10.6a3.3,3.3,0,1,0,0,6.6h26.31a3.3,3.3,0,1,0,0-6.6Z"/><rect class="cls-8" height="10.6" rx="5.3" ry="5.3" width="36.91" x="141.57" y="180.08"/><rect class="cls-9" height="6.77" rx="3" ry="3" width="36.91" x="141.57" y="180.2"/><path class="cls-3" d="M173.18,192.68H146.87a7.3,7.3,0,1,1,0-14.6h26.31a7.3,7.3,0,1,1,0,14.6Zm-26.31-10.6a3.3,3.3,0,1,0,0,6.6h26.31a3.3,3.3,0,1,0,0-6.6Z"/><rect class="cls-8" height="10.6" rx="5.3" ry="5.3" width="36.91" x="178.48" y="201.4"/><rect class="cls-9" height="6.77" rx="3" ry="3" width="36.91" x="178.48" y="201.4"/><path class="cls-3" d="M210.09,214H183.78a7.3,7.3,0,1,1,0-14.6h26.31a7.3,7.3,0,1,1,0,14.6Zm-26.31-10.6a3.3,3.3,0,1,0,0,6.6h26.31a3.3,3.3,0,1,0,0-6.6Z"/><rect class="cls-8" height="10.6" rx="5.3" ry="5.3" width="36.91" x="178.48" y="190.8"/><rect class="cls-9" height="6.77" rx="3" ry="3" width="36.91" x="178.48" y="190.8"/><path class="cls-3" d="M210.09,203.4H183.78a7.3,7.3,0,1,1,0-14.6h26.31a7.3,7.3,0,1,1,0,14.6Zm-26.31-10.6a3.3,3.3,0,1,0,0,6.6h26.31a3.3,3.3,0,1,0,0-6.6Z"/><rect class="cls-8" height="10.6" rx="5.3" ry="5.3" width="36.91" x="178.48" y="180.08"/><rect class="cls-9" height="6.77" rx="3" ry="3" width="36.91" x="178.48" y="180.2"/><path class="cls-3" d="M210.09,192.68H183.78a7.3,7.3,0,1,1,0-14.6h26.31a7.3,7.3,0,1,1,0,14.6Zm-26.31-10.6a3.3,3.3,0,1,0,0,6.6h26.31a3.3,3.3,0,1,0,0-6.6Z"/><rect class="cls-8" height="10.6" rx="5.3" ry="5.3" width="36.91" x="178.48" y="169.48"/><rect class="cls-9" height="6.77" rx="3" ry="3" width="36.91" x="178.48" y="169.6"/><path class="cls-3" d="M210.09,182.08H183.78a7.3,7.3,0,1,1,0-14.6h26.31a7.3,7.3,0,1,1,0,14.6Zm-26.31-10.6a3.3,3.3,0,1,0,0,6.6h26.31a3.3,3.3,0,1,0,0-6.6Z"/><rect class="cls-8" height="10.6" rx="5.3" ry="5.3" width="36.91" x="178.48" y="158.88"/><rect class="cls-9" height="6.77" rx="3" ry="3" width="36.91" x="178.48" y="159"/><path class="cls-3" d="M210.09,171.48H183.78a7.3,7.3,0,1,1,0-14.6h26.31a7.3,7.3,0,1,1,0,14.6Zm-26.31-10.6a3.3,3.3,0,1,0,0,6.6h26.31a3.3,3.3,0,1,0,0-6.6Z"/><circle class="cls-10" cx="31" cy="42" r="5"/><circle class="cls-10" cx="32" cy="120" r="4"/><circle class="cls-10" cx="195" cy="224" r="3"/><circle class="cls-10" cx="96" cy="33" r="2"/><circle class="cls-10" cx="25" cy="99" r="1"/><circle class="cls-11" cx="11" cy="80" r="5"/><circle class="cls-11" cx="133" cy="35" r="4"/><circle class="cls-11" cx="163" cy="220" r="3"/><circle class="cls-11" cx="224" cy="156" r="2"/><circle class="cls-11" cx="69" cy="232" r="1"/><circle class="cls-12" cx="137" cy="225" r="5"/><circle class="cls-12" cx="222" cy="111" r="4"/><circle class="cls-12" cx="187" cy="30" r="3"/><circle class="cls-12" cx="218" cy="136" r="2"/><circle class="cls-12" cx="43" cy="225" r="1"/><circle class="cls-13" cx="245" cy="138" r="5"/><circle class="cls-13" cx="224" cy="87" r="4"/><circle class="cls-13" cx="29" cy="191" r="3"/><circle class="cls-13" cx="21" cy="142" r="2"/><circle class="cls-13" cx="52" cy="24" r="1"/></g></svg>