<?xml version="1.0" ?><svg viewBox="0 0 256 256" xmlns="http://www.w3.org/2000/svg"><defs><style>.cls-1{fill:#90fc95;}.cls-2{fill:#52e355;}.cls-3{fill:#2fb1ea;}.cls-4{fill:#ffe76e;}.cls-5{fill:#ffc444;}.cls-6{fill:#cbecf9;}.cls-7{fill:#fff;}.cls-8{fill:#a4ecff;}.cls-9{fill:#6dd0fc;}.cls-10{fill:#d4ffd4;}.cls-11{fill:#ffbdbd;}.cls-12{fill:#bbf1ff;}.cls-13{fill:#fff4c5;}</style></defs><title/><g data-name="Layer 2" id="Layer_2"><rect class="cls-1" height="58.82" transform="translate(90.23 -33.24) rotate(45)" width="106.05" x="32.22" y="62.88"/><path class="cls-2" d="M143.53,109,116.21,81.67H36a22.08,22.08,0,0,0-2.79.18l68.73,68.73Z"/><path class="cls-3" d="M101.94,152.58a2,2,0,0,1-1.41-.59l-75-75a2,2,0,0,1,0-2.83L67.13,32.59a2.06,2.06,0,0,1,2.83,0l75,75a2,2,0,0,1,0,2.83L103.35,152A2,2,0,0,1,101.94,152.58Zm-72.16-77,72.16,72.16L140.7,109,68.54,36.83Z"/><path class="cls-4" d="M120.68,116.6l-11.13,11.13a10.77,10.77,0,0,0-15.23,0L49.8,83.21A10.77,10.77,0,0,0,49.8,68L60.93,56.85a10.77,10.77,0,0,0,15.23,0l44.52,44.52A10.77,10.77,0,0,0,120.68,116.6Z"/><path class="cls-5" d="M94.32,127.73a10.77,10.77,0,0,1,15.23,0l11.13-11.13a10.77,10.77,0,0,1,0-15.23L101,81.67H51.07a10.8,10.8,0,0,1-1.27,1.54Z"/><path class="cls-3" d="M109.55,129.73h0a2,2,0,0,1-1.41-.59,8.77,8.77,0,0,0-12.4,0,2.06,2.06,0,0,1-2.83,0L48.38,84.62a2,2,0,0,1,0-2.83,8.77,8.77,0,0,0,0-12.4,2,2,0,0,1,0-2.83L59.52,55.43a2,2,0,0,1,2.83,0,8.78,8.78,0,0,0,12.4,0,2,2,0,0,1,2.83,0L122.1,100a2,2,0,0,1,0,2.83,8.77,8.77,0,0,0,0,12.4,2,2,0,0,1,0,2.83L111,129.15A2,2,0,0,1,109.55,129.73Zm-7.62-7.16a12.67,12.67,0,0,1,7.51,2.44l8.52-8.52a12.79,12.79,0,0,1,0-15L76,59.57a12.8,12.8,0,0,1-15,0l-8.52,8.52a12.79,12.79,0,0,1,0,15L94.43,125A12.67,12.67,0,0,1,101.94,122.58Z"/><circle class="cls-6" cx="85.24" cy="92.29" r="10.94" transform="translate(-40.29 87.31) rotate(-45)"/><path class="cls-3" d="M85.24,105.22a12.93,12.93,0,1,1,9.15-3.78h0A12.9,12.9,0,0,1,85.24,105.22Zm0-21.88a8.94,8.94,0,1,0,6.32,15.26h0a8.94,8.94,0,0,0-6.32-15.26ZM93,100h0Z"/><rect class="cls-1" height="58.82" transform="translate(322.62 50.95) rotate(135)" width="106.05" x="97.74" y="62.88"/><path class="cls-2" d="M134.06,150.58l68.73-68.73a22.08,22.08,0,0,0-2.79-.18H119.79L92.47,109Z"/><path class="cls-3" d="M134.06,152.58a2,2,0,0,1-1.41-.59L91.06,110.4a2,2,0,0,1,0-2.83l75-75a2.06,2.06,0,0,1,2.83,0l41.59,41.59a2,2,0,0,1,0,2.83l-75,75A2,2,0,0,1,134.06,152.58ZM95.3,109l38.77,38.77,72.16-72.16L167.46,36.83Z"/><path class="cls-4" d="M115.32,116.6l11.13,11.13a10.77,10.77,0,0,1,15.23,0L186.2,83.21a10.77,10.77,0,0,1,0-15.23L175.07,56.85a10.77,10.77,0,0,1-15.23,0l-44.52,44.52A10.77,10.77,0,0,1,115.32,116.6Z"/><path class="cls-5" d="M115.32,116.6l11.13,11.13a10.77,10.77,0,0,1,15.23,0L186.2,83.21a10.8,10.8,0,0,1-1.27-1.54H135l-19.7,19.7A10.77,10.77,0,0,1,115.32,116.6Z"/><path class="cls-3" d="M141.68,129.73h0a2,2,0,0,1-1.41-.59,8.77,8.77,0,0,0-12.4,0,2.06,2.06,0,0,1-2.83,0L113.9,118a2,2,0,0,1,0-2.83,8.77,8.77,0,0,0,0-12.4,2,2,0,0,1,0-2.83l44.52-44.52a2,2,0,0,1,2.83,0,8.78,8.78,0,0,0,12.4,0,2,2,0,0,1,2.83,0l11.13,11.13a2,2,0,0,1,0,2.83,8.77,8.77,0,0,0,0,12.4,2,2,0,0,1,0,2.83l-44.52,44.52A2,2,0,0,1,141.68,129.73ZM118,116.49l8.52,8.52a12.78,12.78,0,0,1,15,0L183.48,83.1a12.79,12.79,0,0,1,0-15L175,59.57a12.8,12.8,0,0,1-15,0L118,101.48a12.79,12.79,0,0,1,0,15Z"/><circle class="cls-6" cx="150.76" cy="92.29" r="10.94" transform="translate(-21.1 133.63) rotate(-45)"/><path class="cls-3" d="M150.76,105.22a12.9,12.9,0,0,1-9.15-3.78h0a13,13,0,1,1,9.15,3.78Zm-6.32-6.61a8.94,8.94,0,1,0,0-12.64,9,9,0,0,0,0,12.64Z"/><rect class="cls-1" height="58.82" transform="translate(205.02 -30.98) rotate(90)" width="106.05" x="64.98" y="57.61"/><rect class="cls-2" height="58.38" width="58.82" x="88.59" y="81.67"/><path class="cls-3" d="M147.41,142H88.59a2,2,0,0,1-2-2V34a2,2,0,0,1,2-2h58.82a2,2,0,0,1,2,2V140A2,2,0,0,1,147.41,142Zm-56.82-4h54.82V36H90.59Z"/><path class="cls-4" d="M125.87,129.28H110.13a10.77,10.77,0,0,0-10.77-10.77v-63a10.77,10.77,0,0,0,10.77-10.77h15.74a10.77,10.77,0,0,0,10.77,10.77v63A10.77,10.77,0,0,0,125.87,129.28Z"/><path class="cls-5" d="M110.13,129.28h15.74a10.77,10.77,0,0,1,10.77-10.77V81.67H99.36v36.84A10.77,10.77,0,0,1,110.13,129.28Z"/><path class="cls-3" d="M125.87,131.28H110.13a2,2,0,0,1-2-2,8.78,8.78,0,0,0-8.77-8.77,2,2,0,0,1-2-2v-63a2,2,0,0,1,2-2,8.78,8.78,0,0,0,8.77-8.77,2,2,0,0,1,2-2h15.74a2,2,0,0,1,2,2,8.78,8.78,0,0,0,8.77,8.77,2,2,0,0,1,2,2v63a2,2,0,0,1-2,2,8.78,8.78,0,0,0-8.77,8.77A2,2,0,0,1,125.87,131.28Zm-13.9-4H124a12.8,12.8,0,0,1,10.61-10.61V57.38A12.8,12.8,0,0,1,124,46.77H112a12.8,12.8,0,0,1-10.61,10.61v59.28A12.8,12.8,0,0,1,112,127.28Z"/><circle class="cls-7" cx="118" cy="87.02" r="10.94"/><path class="cls-6" d="M118,98a10.93,10.93,0,0,0,9.53-16.3H108.47A10.93,10.93,0,0,0,118,98Z"/><path class="cls-3" d="M118,100A12.94,12.94,0,1,1,130.94,87,13,13,0,0,1,118,100Zm0-21.88A8.94,8.94,0,1,0,126.94,87,9,9,0,0,0,118,78.08Z"/><rect class="cls-8" height="130.33" rx="12" ry="12" width="188" x="24" y="91.67"/><rect class="cls-9" height="99.11" width="188" x="24" y="107.28"/><path class="cls-3" d="M200,224H36a14,14,0,0,1-14-14V103.67a14,14,0,0,1,14-14H200a14,14,0,0,1,14,14V210A14,14,0,0,1,200,224ZM36,93.67a10,10,0,0,0-10,10V210a10,10,0,0,0,10,10H200a10,10,0,0,0,10-10V103.67a10,10,0,0,0-10-10Z"/><rect class="cls-6" height="85.67" width="188" x="24" y="114"/><rect class="cls-7" height="71.56" width="188" x="24" y="121.05"/><path class="cls-3" d="M212,201.67H24a2,2,0,0,1-2-2V114a2,2,0,0,1,2-2H212a2,2,0,0,1,2,2v85.67A2,2,0,0,1,212,201.67Zm-186-4H210V116H26Z"/><rect class="cls-2" height="34.25" rx="6" ry="6" width="49.96" x="182.04" y="139.71"/><rect class="cls-1" height="27.94" rx="5.42" ry="5.42" width="49.96" x="182.04" y="139.71"/><path class="cls-3" d="M226,176H188a8,8,0,0,1-8-8V145.71a8,8,0,0,1,8-8h38a8,8,0,0,1,8,8V168A8,8,0,0,1,226,176Zm-38-34.25a4,4,0,0,0-4,4V168a4,4,0,0,0,4,4h38a4,4,0,0,0,4-4V145.71a4,4,0,0,0-4-4Z"/><circle class="cls-10" cx="133" cy="7" r="5"/><circle class="cls-10" cx="8" cy="128" r="4"/><circle class="cls-10" cx="115" cy="248" r="3"/><circle class="cls-10" cx="250" cy="189" r="2"/><circle class="cls-10" cx="206" cy="240" r="1"/><circle class="cls-11" cx="151" cy="239" r="5"/><circle class="cls-11" cx="246" cy="223" r="4"/><circle class="cls-11" cx="107" cy="19" r="3"/><circle class="cls-11" cx="197" cy="24" r="2"/><circle class="cls-11" cx="240" cy="85" r="1"/><circle class="cls-12" cx="22" cy="45" r="5"/><circle class="cls-12" cx="66" cy="233" r="4"/><circle class="cls-12" cx="224" cy="29" r="3"/><circle class="cls-12" cx="18" cy="225" r="2"/><circle class="cls-12" cx="29" cy="208" r="1"/><circle class="cls-13" cx="219" cy="76" r="5"/><circle class="cls-13" cx="177" cy="250" r="4"/><circle class="cls-13" cx="13" cy="175" r="3"/><circle class="cls-13" cx="49" cy="42" r="2"/><circle class="cls-13" cx="238" cy="131" r="1"/></g></svg>